<?xml version="1.0" standalone="no"?><!DOCTYPE svg PUBLIC "-//W3C//DTD SVG 1.1//EN" "http://www.w3.org/Graphics/SVG/1.1/DTD/svg11.dtd"><svg t="1565580498973" class="icon" viewBox="0 0 1024 1024" version="1.1" xmlns="http://www.w3.org/2000/svg" p-id="4945" xmlns:xlink="http://www.w3.org/1999/xlink" width="200" height="200"><defs><style type="text/css"></style></defs><path d="M906.527518 134.000923c-0.122797 3.045359-0.500397 6.114255-1.324158 9.185196L764.79347 667.205874c-5.892197 21.982664-28.15934 35.116799-49.739844 29.333072-21.580504-5.782703-34.299177-28.29237-28.409027-50.272987l115.725698-431.895591L263.662005 524.93766l210.942293 56.522318c12.650111 1.418302 24.503067 8.493441 31.355125 20.361747l155.551752 269.423219c11.45489 19.839861 4.657067 45.209668-15.182794 56.663534-19.841907 11.45489-45.209668 4.65502-56.665581-15.184841L441.538205 656.162354l-287.458991-77.025281c-12.600993-1.214664-24.38948-8.087189-31.121811-19.74674-1.52575-2.641153-2.645247-5.395894-3.508917-8.196683-2.460028-7.28287-2.895957-15.337313-0.756223-23.318078 3.625574-13.528108 13.715373-23.581068 26.050306-27.767414L845.455581 96.143711c19.709901-11.380188 44.744064-4.919033 55.914474 14.429641C905.617799 117.930923 907.220297 126.084627 906.527518 134.000923z" p-id="4946"></path></svg>