<?xml version="1.0" standalone="no"?><!DOCTYPE svg PUBLIC "-//W3C//DTD SVG 1.1//EN" "http://www.w3.org/Graphics/SVG/1.1/DTD/svg11.dtd"><svg t="1565520272116" class="icon" viewBox="0 0 1024 1024" version="1.1" xmlns="http://www.w3.org/2000/svg" p-id="15673" xmlns:xlink="http://www.w3.org/1999/xlink" width="200" height="200"><defs><style type="text/css"></style></defs><path d="M336.528 600.4c13.168 11.792 80 71.104 102.72 82.416 8.208 4.096 20.208 8.832 34.096 14.4 22.496 8.896 80.8 32 91.28 46.576-6.4 16.592-28.304 23.824-64.976 21.696a398.192 398.192 0 0 1-170.16-55.264 24 24 0 1 0-26.16 40.24 440.464 440.464 0 0 0 193.456 62.928c80.352 4.96 106.88-29.776 115.04-59.696 13.136-48.096-58.016-76.256-120.816-101.12-12.8-5.088-24-9.488-30.4-12.672a907.568 907.568 0 0 1-92.896-75.888c-2.112-1.728-52.704-42.208-140.992-22.4-85.248 19.2-154.624 107.856-157.52 111.6a24 24 0 0 0-5.024 14.688v143.2a24 24 0 0 0 48 0v-134.544c16-18.768 67.84-75.2 125.088-88 64.256-14.592 98.848 11.6 99.264 11.84z" p-id="15674"></path><path d="M237.536 424.08l101.376 0.112a24 24 0 0 0 0-48h-97.056l-2.768-0.096c-17.024-0.576-52.448-1.792-70.4-21.552a58.048 58.048 0 0 1-11.984-44.544c4.24-68.8 78.768-74.384 87.168-74.768a24.16 24.16 0 0 0 21.68-16c1.136-3.2 28.8-78.272 104.368-78.272a105.2 105.2 0 0 1 102.4 73.856 24 24 0 0 0 44.8-17.28 152.88 152.88 0 0 0-147.2-104.576c-86.656 0-128.704 65.728-143.392 95.824-45.456 6.864-112.736 37.312-117.728 118.24a104.4 104.4 0 0 0 24.368 79.808c31.648 34.784 82.608 36.512 104.368 37.248z" p-id="15675"></path><path d="M394.512 392.976a102.576 102.576 0 0 0 24 78.4c31.024 34.16 80.96 35.856 102.288 36.576l287.056 0.112a89.968 89.968 0 0 0 88-88.944v-1.728c0.512-73.872-56.288-108.528-96.944-119.92a152.832 152.832 0 0 0-148.704-114.128c-84.8 0-125.952 64-140.496 93.648-44.56 6.8-110.32 36.72-115.2 115.984z m154.224-85.568c1.12-3.2 28.08-76.096 101.488-76.096 88.272 0 104.592 86.736 105.232 90.416a24 24 0 0 0 20.192 19.68c2.976 0.432 72.672 11.312 72.208 76.8a41.6 41.6 0 0 1-40 41.824H525.056l-2.72-0.096c-16.56-0.56-51.008-1.728-68.4-20.8a56.256 56.256 0 0 1-11.568-43.2c4.128-66.752 76.512-72.16 84.64-72.544a24.16 24.16 0 0 0 21.728-15.984z" p-id="15676"></path><path d="M937.776 578.096a48.704 48.704 0 0 0-28.288-12.8c-37.456-3.2-98.496 38.4-162.816 84.8-5.904 4.256-11.2 8-15.648 11.2a956.544 956.544 0 0 1-93.2 55.008 24 24 0 0 0 21.92 42.704 987.344 987.344 0 0 0 98.944-58.496c4.576-3.2 10-7.136 16.08-11.52 26.64-19.2 107.536-78.256 129.504-76.192a8.912 8.912 0 0 1 1.984 1.424 19.536 19.536 0 0 1 1.488 25.744c-46.992 64.88-209.776 242.992-318.496 242.992H254.656a24 24 0 1 0 0 48h334.608c138.656 0 317.152-207.328 357.36-262.816a67.568 67.568 0 0 0-8.848-90.048z" p-id="15677"></path></svg>