<?xml version="1.0" standalone="no"?><!DOCTYPE svg PUBLIC "-//W3C//DTD SVG 1.1//EN" "http://www.w3.org/Graphics/SVG/1.1/DTD/svg11.dtd"><svg t="1565580110187" class="icon" viewBox="0 0 1024 1024" version="1.1" xmlns="http://www.w3.org/2000/svg" p-id="11254" xmlns:xlink="http://www.w3.org/1999/xlink" width="200" height="200"><defs><style type="text/css"></style></defs><path d="M162.7648 307.0976C141.1072 289.1776 108.6464 292.2496 90.6752 313.856L25.2928 392.6528c-17.92 21.6576-14.8992 54.1696 6.7072 72.0384l403.8656 334.9504L240.9472 371.9168 162.7648 307.0976zM359.0656 137.3696l-93.184 42.4448C240.3328 191.488 228.9152 222.0544 240.5376 247.6032l217.6 477.44 10.9056-469.9648L426.9568 162.7136C415.1808 137.1136 384.6656 125.696 359.0656 137.3696zM727.6032 147.8144c0.6656-28.16-21.8624-51.712-49.9712-52.3776l-102.4-2.3552c-28.1088-0.6656-51.6608 21.8624-52.3264 49.9712L510.6688 667.4944l214.528-418.1504L727.6032 147.8144zM982.5792 196.4544l-91.0848-46.7456c-25.0368-12.8-56.1152-2.816-68.9664 22.2208L495.3088 809.6768c-12.8512 25.0368-2.8672 56.1152 22.2208 68.9664l91.0848 46.7456c25.0368 12.8512 56.064 2.8672 68.9152-22.1696l327.2192-637.7472C1017.6 240.3328 1007.616 209.3056 982.5792 196.4544zM655.3088 834.2016c-12.9024 25.1904-43.776 35.1232-68.9152 22.2208-25.1904-12.9024-35.072-43.7248-22.1696-68.9152 12.9024-25.1904 43.7248-35.072 68.9152-22.1696C658.3296 778.1888 668.2112 809.0624 655.3088 834.2016z" p-id="11255"></path></svg>