<?xml version="1.0" standalone="no"?><!DOCTYPE svg PUBLIC "-//W3C//DTD SVG 1.1//EN" "http://www.w3.org/Graphics/SVG/1.1/DTD/svg11.dtd"><svg t="1565580430285" class="icon" viewBox="0 0 1024 1024" version="1.1" xmlns="http://www.w3.org/2000/svg" p-id="2558" xmlns:xlink="http://www.w3.org/1999/xlink" width="200" height="200"><defs><style type="text/css"></style></defs><path d="M877.920482 97.721649 146.078495 97.721649c-34.18252 0-61.992913 27.810393-61.992913 61.993936l0 692.310645c0 34.183544 27.810393 61.993936 61.992913 61.993936l731.841987 0c34.18252 0 61.992913-27.810393 61.992913-61.993936L939.913395 159.715585C939.913395 125.532041 912.103002 97.721649 877.920482 97.721649zM882.608248 852.02623c0 2.584871-2.102894 4.688789-4.687766 4.688789L146.078495 856.715019c-2.584871 0-4.687766-2.103918-4.687766-4.688789L141.390729 159.715585c0-2.584871 2.102894-4.688789 4.687766-4.688789l731.841987 0c2.584871 0 4.687766 2.102894 4.687766 4.688789L882.608248 852.02623z" p-id="2559"></path><path d="M487.428883 662.573367l-0.291642-138.904607c-43.386136-12.347213-75.229378-30.969339-95.532797-56.039317-20.23588-25.099654-30.457686-55.520501-30.535457-91.303472-0.074701-36.220946 11.280928-66.692958 34.096563-91.409896 22.915919-24.717961 53.331649-38.949081 91.381244-42.868343l-0.069585-32.82357 47.977711-0.102331 0.067538 32.824593c35.215036 4.242627 63.205531 16.041348 84.072791 35.842323 20.770046 19.766183 34.08019 46.210461 39.889499 79.361489l-83.83743 11.151991c-5.15337-26.154683-18.441001-43.759643-39.972387-52.992935l0.275269 129.59559c53.102429 14.263865 89.364307 32.872688 108.576881 55.703673 19.280112 22.825868 28.958542 52.130288 29.033243 87.980797 0.080841 39.99183-11.94403 73.726142-36.013215 101.164051-24.165376 27.570939-57.839313 44.395116-100.981902 50.703799l0.130983 62.045101-47.976688 0.103354-0.124843-60.45079c-38.270629-4.572132-69.427232-18.747993-93.396133-42.583864-23.903409-23.737634-39.128159-57.444317-45.916772-100.990089l86.59524-9.492188c3.502777 17.661242 10.226922 32.93818 20.006659 45.691645C464.528314 647.564535 475.417315 656.82341 487.428883 662.573367L487.428883 662.573367zM486.700289 314.390363c-13.143345 4.447289-23.426549 12.045337-31.215956 22.592554-7.658424 10.651594-11.507078 22.418592-11.481496 35.230386 0.024559 11.651364 3.581572 22.617114 10.602476 32.559557 7.15905 10.076496 17.911952 18.175965 32.328289 24.39869L486.700289 314.390363 486.700289 314.390363zM535.413757 667.093311c16.649192-3.091408 30.083156-10.799974 40.489156-23.054065 10.402931-12.356422 15.538905-26.737968 15.504112-43.38409-0.030699-14.818497-4.474918-27.484981-13.19451-38.240953-8.721639-10.712993-23.144116-18.940374-43.073005-24.575722L535.413757 667.093311 535.413757 667.093311z" p-id="2560"></path></svg>