<?xml version="1.0" standalone="no"?><!DOCTYPE svg PUBLIC "-//W3C//DTD SVG 1.1//EN" "http://www.w3.org/Graphics/SVG/1.1/DTD/svg11.dtd"><svg t="1565580073288" class="icon" viewBox="0 0 1280 1024" version="1.1" xmlns="http://www.w3.org/2000/svg" p-id="9880" xmlns:xlink="http://www.w3.org/1999/xlink" width="250" height="200"><defs><style type="text/css"></style></defs><path d="M90.336 109.795h252.255v799.479H90.336V109.821z m557.086 62.253l238.755-81.554 258.398 756.554-238.729 81.607-258.425-756.607z m285.372 451.459c-33.394 11.656-56.922 42.881-56.922 79.602 0 46.458 37.662 84.12 84.12 84.12 9.738 0 19.089-1.654 27.788-4.698 32.799-11.467 56.327-42.683 56.327-79.395a83.98 83.98 0 0 0-4.704-27.802c-11.438-32.817-42.654-56.365-79.371-56.365-9.753 0-19.118 1.661-27.825 4.717zM746.325 348.312l18.932 55.529L938.41 344.7l-18.984-55.529-173.101 59.141z m-39.471-115.435l19.011 55.583 173.101-59.141-18.984-55.583-173.127 59.141zM379.399 109.795h252.308v799.479H379.373V109.821z m124.137 519.46c-46.461 0-84.125 37.664-84.125 84.125s37.664 84.125 84.125 84.125 84.125-37.664 84.125-84.125-37.664-84.125-84.125-84.125z m-87.513-320.704v58.746h182.935v-58.746H416.023z m0-121.923v58.693h182.935v-58.693H416.023zM214.499 629.255h-0.026c-46.453 0-84.112 37.658-84.112 84.112 0 46.453 37.658 84.112 84.112 84.112 46.453 0 84.112-37.658 84.112-84.112 0-46.453-37.658-84.112-84.112-84.112z m-87.566-320.704v58.746h182.935v-58.746H126.906z m0-121.923v58.693h182.935v-58.693H126.906z" p-id="9881"></path></svg>