<?xml version="1.0" standalone="no"?><!DOCTYPE svg PUBLIC "-//W3C//DTD SVG 1.1//EN" "http://www.w3.org/Graphics/SVG/1.1/DTD/svg11.dtd"><svg t="1565580017309" class="icon" viewBox="0 0 1024 1024" version="1.1" xmlns="http://www.w3.org/2000/svg" p-id="8325" xmlns:xlink="http://www.w3.org/1999/xlink" width="200" height="200"><defs><style type="text/css"></style></defs><path d="M864.1536 189.703314l-114.951314-127.268571c-10.971429-10.971429-21.767314-24.649143-37.302857-24.649143h-493.860572c-32.314514 0-77.853257 41.208686-77.853257 73.5232v819.2c0 32.314514 45.538743 43.505371 77.853257 43.505371h614.4c32.314514 0 39.175314-11.190857 39.175314-43.505371V231.072914c0-15.520914 3.510857-30.398171-7.460571-41.3696z m-67.423086 23.625143h-86.030628V120.100571l86.030628 93.227886z m-598.030628 702.171429v-819.2h482.742857v129.2288c0 8.0896 10.210743 17.056914 18.300343 17.056914h113.3568v672.914286h-614.4z" fill="" p-id="8326"></path><path d="M705.375086 547.357257a14.628571 14.628571 0 0 0-10.517943-14.043428l-165.493029-48.464458a14.877257 14.877257 0 0 0-8.235885 0l-165.493029 48.464458a14.628571 14.628571 0 0 0 0 28.086857l51.946057 15.213714-51.946057 15.213714a14.628571 14.628571 0 0 0 0 28.086857l51.946057 15.213715-51.946057 15.213714a14.628571 14.628571 0 0 0 0 28.086857l165.493029 48.464457a15.169829 15.169829 0 0 0 8.221257 0L694.857143 678.429257a14.628571 14.628571 0 0 0 0-28.086857l-51.946057-15.213714 51.946057-15.213715a14.628571 14.628571 0 0 0 0-28.086857l-51.946057-15.213714 51.946057-15.213714a14.628571 14.628571 0 0 0 10.517943-14.043429z m-180.136229-33.221486l113.4592 33.221486-113.4592 33.221486-113.4592-33.221486 113.4592-33.221486z m113.4592 150.250058l-113.4592 33.221485-113.4592-33.221485 47.850057-14.014172 61.498515 18.007772a15.169829 15.169829 0 0 0 8.221257 0l61.483885-18.007772 47.864686 14.014172z m0-58.514286l-113.4592 33.221486-113.4592-33.221486 47.850057-14.014172 61.498515 18.007772a15.169829 15.169829 0 0 0 8.221257 0l61.483885-18.007772 47.864686 14.014172z" fill="" p-id="8327"></path></svg>