<?xml version="1.0" standalone="no"?><!DOCTYPE svg PUBLIC "-//W3C//DTD SVG 1.1//EN" "http://www.w3.org/Graphics/SVG/1.1/DTD/svg11.dtd"><svg t="1565580374039" class="icon" viewBox="0 0 1024 1024" version="1.1" xmlns="http://www.w3.org/2000/svg" p-id="20033" xmlns:xlink="http://www.w3.org/1999/xlink" width="200" height="200"><defs><style type="text/css"></style></defs><path d="M768 640h-85.333333v85.333333h85.333333m0-256h-85.333333v85.333334h85.333333m85.333333 256h-341.333333v-85.333334h85.333333v-85.333333h-85.333333v-85.333333h85.333333v-85.333334h-85.333333V384h341.333333M426.666667 298.666667H341.333333V213.333333h85.333334m0 256H341.333333V384h85.333334m0 256H341.333333v-85.333333h85.333334m0 256H341.333333v-85.333334h85.333334M256 298.666667H170.666667V213.333333h85.333333m0 256H170.666667V384h85.333333m0 256H170.666667v-85.333333h85.333333m0 256H170.666667v-85.333334h85.333333m256-426.666666V128H85.333333v768h853.333334V298.666667H512z" fill="" p-id="20034"></path></svg>