<?xml version="1.0" standalone="no"?><!DOCTYPE svg PUBLIC "-//W3C//DTD SVG 1.1//EN" "http://www.w3.org/Graphics/SVG/1.1/DTD/svg11.dtd"><svg t="1565520142540" class="icon" viewBox="0 0 1024 1024" version="1.1" xmlns="http://www.w3.org/2000/svg" p-id="12476" xmlns:xlink="http://www.w3.org/1999/xlink" width="200" height="200"><defs><style type="text/css"></style></defs><path d="M170.666667 938.666667c-25.6 0-42.666667-17.066667-42.666667-42.666667L128 128c0-25.6 17.066667-42.666667 42.666667-42.666667s42.666667 17.066667 42.666667 42.666667l0 768C213.333333 921.6 196.266667 938.666667 170.666667 938.666667z" p-id="12477"></path><path d="M853.333333 938.666667c-25.6 0-42.666667-17.066667-42.666667-42.666667L810.666667 128c0-25.6 17.066667-42.666667 42.666667-42.666667s42.666667 17.066667 42.666667 42.666667l0 768C896 921.6 878.933333 938.666667 853.333333 938.666667z" p-id="12478"></path><path d="M981.333333 298.666667 42.666667 298.666667C17.066667 298.666667 0 281.6 0 256s17.066667-42.666667 42.666667-42.666667l938.666667 0c25.6 0 42.666667 17.066667 42.666667 42.666667S1006.933333 298.666667 981.333333 298.666667z" p-id="12479"></path><path d="M981.333333 810.666667 42.666667 810.666667c-25.6 0-42.666667-17.066667-42.666667-42.666667s17.066667-42.666667 42.666667-42.666667l938.666667 0c25.6 0 42.666667 17.066667 42.666667 42.666667S1006.933333 810.666667 981.333333 810.666667z" p-id="12480"></path></svg>