<?xml version="1.0" standalone="no"?><!DOCTYPE svg PUBLIC "-//W3C//DTD SVG 1.1//EN" "http://www.w3.org/Graphics/SVG/1.1/DTD/svg11.dtd"><svg t="1565520017915" class="icon" viewBox="0 0 1024 1024" version="1.1" xmlns="http://www.w3.org/2000/svg" p-id="11190" xmlns:xlink="http://www.w3.org/1999/xlink" width="200" height="200"><defs><style type="text/css"></style></defs><path d="M91.32 429.28h-16v-16a4 4 0 0 0-8 0v16h-16a4 4 0 0 0 0 8h16v16a4 4 0 0 0 8 0v-16h16a4 4 0 0 0 0-8zM236 95.72h-16v-16a4 4 0 0 0-8 0v16h-16a4 4 0 0 0 0 8h16v16a4 4 0 1 0 8 0v-16h16a4 4 0 0 0 0-8z" p-id="11191"></path><path d="M308.44 900h-16v-16a4 4 0 0 0-8 0v16h-16a4 4 0 0 0 0 8h16v16a4 4 0 0 0 8 0v-16h16a4 4 0 1 0 0-8zM741.4 900h-16v-16a4 4 0 0 0-8 0v16h-16a4 4 0 1 0 0 8h16v16a4 4 0 0 0 8 0v-16h16a4 4 0 0 0 0-8zM967.32 349h-16v-16a4 4 0 0 0-8 0v16h-16a4 4 0 0 0 0 8h16v16a4 4 0 0 0 8 0v-16h16a4 4 0 0 0 0-8zM450.76 123.72a24 24 0 1 1 24-24 24 24 0 0 1-24 24z m0-40a16 16 0 1 0 16 16 16 16 0 0 0-16-16z" p-id="11192"></path><path d="M522 928a24 24 0 1 1 24-24 24 24 0 0 1-24 24z m0-40a16 16 0 1 0 16 16 16 16 0 0 0-16-16zM920 224a24 24 0 1 1 24-24 24 24 0 0 1-24 24z m0-40a16 16 0 1 0 16 16 16 16 0 0 0-16-16z" p-id="11193"></path><path d="M148 191.24m32 0l208.24 0q32 0 32 32l0 151.2q0 32-32 32l-208.24 0q-32 0-32-32l0-151.2q0-32 32-32Z" p-id="11194"></path><path d="M896 452.64a169.12 169.12 0 0 0-168.92-168.92h-17.56a124.68 124.68 0 0 1-24.4 0h-17.4a169.12 169.12 0 0 0-168.92 168.92V504H896zM686 267.68h23a110.2 110.2 0 1 0-23 0z" p-id="11195"></path><path d="M253.8 422.44h40.64V504H253.8z" p-id="11196"></path><path d="M282.44 422.44h12V504h-12z" p-id="11197"></path><path d="M832 832h64v144h-64z" p-id="11198"></path><path d="M944 520.32H100a32 32 0 0 0-32 32V816h908v-263.68a32 32 0 0 0-32-32z" p-id="11199"></path><path d="M144 832h48v144H144z" p-id="11200"></path><path d="M388.24 191.24h-16a32 32 0 0 1 32 32v151.2a32 32 0 0 1-32 32h16a32 32 0 0 0 32-32v-151.2a32 32 0 0 0-32-32z" p-id="11201"></path><path d="M689.4 284l-4.32-0.32h-16a125.12 125.12 0 0 0 20.32 0.32zM727.08 283.68h-15.64A169.12 169.12 0 0 1 880 452.64V504h16v-51.36a169.12 169.12 0 0 0-168.92-168.96zM697.4 48c-2.68 0-5.36 0-8 0.32a110.12 110.12 0 0 1 3.6 219.36h16a110.16 110.16 0 0 0-11.6-219.68z" p-id="11202"></path><path d="M880 832h16v144h-16z" p-id="11203"></path><path d="M944 520.32h-16a32 32 0 0 1 32 32V816h16v-263.68a32 32 0 0 0-32-32z" p-id="11204"></path><path d="M176 832h16v144h-16z" p-id="11205"></path><path d="M944 502.32h-30v-49.68a187.2 187.2 0 0 0-152.36-183.68 128 128 0 1 0-128.52 0 187.2 187.2 0 0 0-152.36 183.68v49.72H312.44v-77.92h76a50.04 50.04 0 0 0 50-50v-151.2a50.04 50.04 0 0 0-50-50H160a50.04 50.04 0 0 0-50 50v151.2a50.04 50.04 0 0 0 50 50h76v77.92H80a50.04 50.04 0 0 0-50 50V824a10 10 0 0 0 10 10h70V984a10 10 0 0 0 10 10h80a10 10 0 0 0 10-10v-150h604V984a10 10 0 0 0 10 10h80a10 10 0 0 0 10-10v-150H984a10 10 0 0 0 10-10v-271.68a50.04 50.04 0 0 0-50-50z m-354.76-344a108 108 0 1 1 119.56 107.56h-22.8a108.28 108.28 0 0 1-96.76-107.72z m-88.48 294.48a167.12 167.12 0 0 1 166.92-166.92h17.4c4 0.4 8 0.6 12.32 0.6s8.24-0.2 12.32-0.6h17.4a167.12 167.12 0 0 1 166.92 166.92v49.2h-393.28zM160 404.44a30.04 30.04 0 0 1-30-30v-151.2a30.04 30.04 0 0 1 30-30h228.24a30.04 30.04 0 0 1 30 30v151.2a30.04 30.04 0 0 1-30 30H160z m132.44 20v77.56H256v-77.56zM190 974h-60v-140h60z m704 0h-60v-140h60z m80-160h-924v-261.68a30.04 30.04 0 0 1 30-30h864a30.04 30.04 0 0 1 30 30z" p-id="11206"></path></svg>