<?xml version="1.0" standalone="no"?><!DOCTYPE svg PUBLIC "-//W3C//DTD SVG 1.1//EN" "http://www.w3.org/Graphics/SVG/1.1/DTD/svg11.dtd"><svg t="1565580091392" class="icon" viewBox="0 0 1024 1024" version="1.1" xmlns="http://www.w3.org/2000/svg" p-id="10335" xmlns:xlink="http://www.w3.org/1999/xlink" width="200" height="200"><defs><style type="text/css"></style></defs><path d="M382.592 0H65.408A65.6 65.6 0 0 0 0 65.408v317.184A65.6 65.6 0 0 0 65.408 448h317.184A65.6 65.6 0 0 0 448 382.592V65.408C448 27.808 418.56 0 382.592 0z m576 0H641.408A65.6 65.6 0 0 0 576 65.408v317.184A65.6 65.6 0 0 0 641.408 448h317.184A65.6 65.6 0 0 0 1024 382.592V65.408C1024 27.808 994.56 0 958.592 0z m-576 576H65.408A65.6 65.6 0 0 0 0 641.408v317.184A65.6 65.6 0 0 0 65.408 1024h317.184A65.6 65.6 0 0 0 448 958.592V641.408A65.6 65.6 0 0 0 382.592 576z m576 0H641.408A65.6 65.6 0 0 0 576 641.408v317.184A65.6 65.6 0 0 0 641.408 1024h317.184A65.6 65.6 0 0 0 1024 958.592V641.408A65.6 65.6 0 0 0 958.592 576z" p-id="10336"></path></svg>