<?xml version="1.0" standalone="no"?><!DOCTYPE svg PUBLIC "-//W3C//DTD SVG 1.1//EN" "http://www.w3.org/Graphics/SVG/1.1/DTD/svg11.dtd"><svg t="1565519960116" class="icon" viewBox="0 0 1024 1024" version="1.1" xmlns="http://www.w3.org/2000/svg" p-id="9800" xmlns:xlink="http://www.w3.org/1999/xlink" width="200" height="200"><defs><style type="text/css"></style></defs><path d="M917.333333 1002.666667h-768c-46.933333 0-85.333333-38.4-85.333333-85.333334v-810.666666c0-46.933333 38.4-85.333333 85.333333-85.333334h85.333334v42.666667c0 46.933333 38.4 85.333333 85.333333 85.333333h426.666667c46.933333 0 85.333333-38.4 85.333333-85.333333v-42.666667h85.333333c46.933333 0 85.333333 38.4 85.333334 85.333334v810.666666c0 46.933333-38.4 85.333333-85.333334 85.333334zM819.2 375.466667c-17.066667-17.066667-42.666667-17.066667-59.733333 0L494.933333 640l-136.533333-136.533333c-17.066667-17.066667-46.933333-17.066667-64 0-17.066667 17.066667-17.066667 46.933333 0 64l162.133333 162.133333c8.533333 8.533333 21.333333 12.8 34.133334 12.8 12.8 0 21.333333-4.266667 29.866666-12.8l298.666667-298.666667c17.066667-12.8 17.066667-38.4 0-55.466666z m-72.533333-268.8h-426.666667c-25.6 0-42.666667-17.066667-42.666667-42.666667s17.066667-42.666667 42.666667-42.666667h426.666667c25.6 0 42.666667 17.066667 42.666666 42.666667s-17.066667 42.666667-42.666666 42.666667z" p-id="9801"></path></svg>