<?xml version="1.0" standalone="no"?><!DOCTYPE svg PUBLIC "-//W3C//DTD SVG 1.1//EN" "http://www.w3.org/Graphics/SVG/1.1/DTD/svg11.dtd"><svg t="1565680259006" class="icon" viewBox="0 0 1092 1024" version="1.1" xmlns="http://www.w3.org/2000/svg" p-id="3836" xmlns:xlink="http://www.w3.org/1999/xlink" width="213.28125" height="200"><defs><style type="text/css"></style></defs><path d="M182.0672 837.4272h728.132267a36.386133 36.386133 0 0 0 0-72.840533H182.0672a36.386133 36.386133 0 0 0 0 72.840533z" p-id="3837"></path><path d="M1090.286933 606.4128L959.419733 55.978667A72.840533 72.840533 0 0 0 888.6272 0H202.888533c-33.723733 0-63.0784 23.210667-70.8608 56.046933L1.979733 606.4128c-1.365333 5.461333-1.979733 11.127467-1.979733 16.7936v286.993067c0 40.277333 32.631467 72.840533 72.840533 72.840533h946.5856c40.277333 0 72.840533-32.631467 72.840534-72.840533V623.274667c0-5.666133-0.682667-11.332267-1.979734-16.7936z m-201.659733-533.572267l129.774933 546.133334H580.4032c1.024-3.413333 2.116267-6.7584 2.116267-10.4448V509.7472a36.727467 36.727467 0 0 0-2.4576-12.356267c122.88-11.127467 220.910933-81.646933 220.910933-175.035733 0-92.706133-96.733867-162.884267-218.453333-174.762667V72.840533h306.107733zM546.133333 218.453333c103.082667 0 182.0672 50.722133 182.0672 103.901867S649.147733 426.257067 546.133333 426.257067c-103.082667 0-182.0672-50.722133-182.0672-103.901867S443.118933 218.453333 546.133333 218.453333zM202.888533 72.840533h306.858667v74.752c-121.719467 11.810133-218.453333 82.056533-218.453333 174.762667 0 93.3888 98.030933 163.908267 220.910933 175.035733a36.727467 36.727467 0 0 0-2.4576 12.288v98.850134c0 3.6864 1.092267 7.099733 2.048 10.4448H73.9328l129.024-546.133334z m816.5376 837.358934H72.840533v-218.453334h946.5856v218.453334z" p-id="3838"></path></svg>