<?xml version="1.0" standalone="no"?><!DOCTYPE svg PUBLIC "-//W3C//DTD SVG 1.1//EN" "http://www.w3.org/Graphics/SVG/1.1/DTD/svg11.dtd"><svg t="1565579793569" class="icon" viewBox="0 0 1024 1024" version="1.1" xmlns="http://www.w3.org/2000/svg" p-id="3851" xmlns:xlink="http://www.w3.org/1999/xlink" width="200" height="200"><defs><style type="text/css"></style></defs><path d="M512 66.3c-3.6 0-7.1 0.1-10.7 0.2C362.8 71.8 247.5 185 239.9 323.4c-4 72.5 20.5 139.2 63.2 190.1 6.1 7.3 11.7 15.1 16.8 23.2 2.7 4.2 5.2 8.5 7.5 12.8 8 14.8 13.8 30.8 18.4 47l29.7 103.4c-5.3 3.5-8.8 9.5-8.8 16.3 0 10.6 8.5 19.2 19.1 19.5l0.2 0.6c0.1 0.1 0.1 0.3 0.2 0.4V863l41.9 62.9h32.3c0 17.5 22.2 30.7 51.6 30.7s51.6-13.2 51.6-30.7h32.2l41.9-62.9V736.9c0.2-0.2 0.3-0.4 0.4-0.6l0.2-0.7c10.5-0.3 19-8.9 19-19.4 0-6.7-3.4-12.6-8.6-16.1l31.7-108.2c4.3-14.6 9.5-29.1 16.6-42.6 4-7.7 8.4-15.2 13.5-22.3 3-4.2 6.1-8.3 9.5-12.3 40.3-47.5 64.7-108.8 64.7-176C784.6 188.3 662.5 66.3 512 66.3z m-36.2 381.5h-18.2c-7.3 0-14.8 0-17.4-0.8-0.8-2.6-0.8-10.1-0.8-17.4s0-14.8 0.8-17.4c2.6-0.8 10.1-0.8 17.4-0.8 7.6 0 12.5 2.6 15.5 8.1 2.6 4.8 2.7 10 2.7 10v18.3z m55.8 247.5h-36.3V467.2h36.3v228.1z m67.3 87.5l-173.7 34.8v-19.3l173.7-34.7v19.2z m-173.7 68.4v-13.7l173.7-34.8V822l-170.4 34.1-3.3-4.9z m173.7-107.5l-173.7 34.7v-41.3h173.7v6.6z m-54.7 182.2c0 2.9-11.1 11.3-32.2 11.3s-32.2-8.4-32.2-11.3h64.4zM575 887H449l-8.9-13.4 158.8-31.7v9.3L575 887z m115.1-397.4c-3.9 4.6-7.8 9.7-11.6 15-5.8 8.1-11.1 16.9-16.2 26.8-7.5 14.4-13.7 30.2-19.4 49.7l-33.5 114.2H551V467.2h18.2c16.1 0 25 0 31.3-6.3 6.3-6.3 6.3-15.2 6.3-31.3s0-25-6.3-31.3c-6.3-6.3-15.2-6.3-31.3-6.3-15.1 0-26.9 6.9-33.1 19.3-4.4 8.8-4.5 17.4-4.5 18.3v18.2h-36.3v-18.2c0-15.1-10-37.6-37.6-37.6-16.1 0-25 0-31.3 6.3s-6.3 15.2-6.3 31.3 0 25 6.3 31.3 15.2 6.3 31.3 6.3h18.2v228.1h-61.2l-31.4-109.4c-6.2-21.6-13.1-39-21.6-54.8-2.8-5.3-5.8-10.4-8.9-15.1-6.5-10.2-13-19.1-19.8-27.3-38.2-45.6-57.4-103.5-54.2-163 3.2-57.2 28-111.5 70.1-152.8 42-41.3 96.7-65.2 154-67.4 3-0.2 6.1-0.3 9.2-0.3 31.6 0 62.1 6.2 90.9 18.3 27.8 11.8 52.8 28.6 74.3 50.1s38.3 46.5 50.1 74.3c12.2 28.8 18.3 59.4 18.3 90.9 0 28.1-5 55.6-14.8 81.7-9.5 25.2-23.2 48.4-40.8 69.1zM551 447.8v-18.1c0-0.1 0.1-5.3 2.7-10.1 3-5.5 7.9-8.1 15.5-8.1 7.3 0 14.8 0 17.4 0.8 0.8 2.6 0.8 10.1 0.8 17.4s0 14.8-0.8 17.4c-2.6 0.8-10.1 0.8-17.4 0.8H551z" p-id="3852"></path></svg>