<?xml version="1.0" standalone="no"?><!DOCTYPE svg PUBLIC "-//W3C//DTD SVG 1.1//EN" "http://www.w3.org/Graphics/SVG/1.1/DTD/svg11.dtd"><svg t="1565519678978" class="icon" viewBox="0 0 1024 1024" version="1.1" xmlns="http://www.w3.org/2000/svg" p-id="6856" xmlns:xlink="http://www.w3.org/1999/xlink" width="200" height="200"><defs><style type="text/css"></style></defs><path d="M512 0C229.229 0 0 207.74 0 464c0 158.285 87.458 298.059 220.968 381.799v157.971c-0.033 3.594 0.943 7.129 2.738 10.232 3.74 6.423 10.494 9.998 17.433 9.998 3.458 0 6.96-0.887 10.161-2.752L404.614 917.77C439.243 924.469 475.166 928 512 928c282.77 0 512-207.74 512-464S794.77 0 512 0z m328.463 755.048c-42.418 38.441-91.897 68.654-147.065 89.801C636.01 866.847 574.979 878 512 878c-32.986 0-65.921-3.136-97.889-9.32a49.994 49.994 0 0 0-37.469 7.647L270.968 947.65V845.799a49.997 49.997 0 0 0-23.433-42.357c-60.025-37.649-109.847-88.148-144.08-146.038-17.278-29.219-30.589-60.256-39.563-92.249A374.611 374.611 0 0 1 50 464c0-55.278 11.959-108.93 35.544-159.463 22.958-49.192 55.928-93.463 97.993-131.584 42.418-38.441 91.898-68.655 147.065-89.801C387.99 61.154 449.021 50 512 50s124.01 11.154 181.397 33.151c55.168 21.146 104.647 51.36 147.065 89.801 42.064 38.121 75.034 82.393 97.993 131.584C962.041 355.07 974 408.722 974 464s-11.959 108.93-35.544 159.463c-22.959 49.192-55.929 93.464-97.993 131.585z" fill="#999999" p-id="6857"></path><path d="M736.883 364.668H294.811c-13.787 0-24.964 11.192-24.964 25 0 13.807 11.177 25 24.964 25h442.072c13.786 0 24.964-11.193 24.964-25 0-13.808-11.178-25-24.964-25zM686.883 535.668H344.811c-13.787 0-24.964 11.191-24.964 25 0 13.807 11.177 25 24.964 25h342.072c13.786 0 24.964-11.193 24.964-25 0-13.809-11.178-25-24.964-25z" fill="#999999" p-id="6858"></path></svg>