<?xml version="1.0" standalone="no"?><!DOCTYPE svg PUBLIC "-//W3C//DTD SVG 1.1//EN" "http://www.w3.org/Graphics/SVG/1.1/DTD/svg11.dtd"><svg t="1565580340126" class="icon" viewBox="0 0 1032 1024" version="1.1" xmlns="http://www.w3.org/2000/svg" p-id="19489" xmlns:xlink="http://www.w3.org/1999/xlink" width="201.5625" height="200"><defs><style type="text/css"></style></defs><path d="M946.086957 129.113043c-113.530435-113.530435-296.069565-113.530435-409.6 0L66.782609 594.365217c-89.043478 86.817391-89.043478 231.513043 0 318.330435C153.6 1001.73913 298.295652 1001.73913 385.113043 912.695652l469.704348-465.252174c62.330435-62.330435 62.330435-164.730435 0-227.06087-62.330435-62.330435-164.730435-62.330435-227.06087 0L273.808696 574.330435c-13.356522 13.356522-13.356522 33.391304 0 44.521739 13.356522 13.356522 33.391304 13.356522 44.521739 0L674.504348 267.130435c37.843478-37.843478 97.947826-37.843478 135.791304 0 37.843478 37.843478 37.843478 97.947826 0 135.791304L340.591304 868.173913c-62.330435 62.330435-164.730435 62.330435-227.06087 0C48.973913 803.617391 48.973913 703.443478 111.304348 638.886957L578.782609 180.313043c89.043478-89.043478 231.513043-89.043478 318.330435 0 89.043478 89.043478 89.043478 231.513043 0 318.330435L547.617391 848.13913c-13.356522 13.356522-13.356522 33.391304 0 44.521739 13.356522 13.356522 33.391304 13.356522 44.521739 0l353.947826-353.947826C1059.617391 427.408696 1059.617391 242.643478 946.086957 129.113043z" p-id="19490"></path></svg>