<?xml version="1.0" standalone="no"?><!DOCTYPE svg PUBLIC "-//W3C//DTD SVG 1.1//EN" "http://www.w3.org/Graphics/SVG/1.1/DTD/svg11.dtd"><svg t="1565680499151" class="icon" viewBox="0 0 1024 1024" version="1.1" xmlns="http://www.w3.org/2000/svg" p-id="2407" xmlns:xlink="http://www.w3.org/1999/xlink" width="200" height="200"><defs><style type="text/css"></style></defs><path d="M829.44 709.973333l-109.226667-30.72c-6.826667 0-13.653333 0-17.066666 3.413334-51.2 58.026667-122.88 136.533333-197.973334 136.533333s-143.36-78.506667-197.973333-136.533333c-3.413333-3.413333-10.24-6.826667-17.066667-3.413334l-112.64 30.72c-102.4 37.546667-177.493333 139.946667-177.493333 256v40.96c0 10.24 6.826667 17.066667 17.066667 17.066667h989.866666c10.24 0 17.066667-6.826667 17.066667-17.066667v-30.72c0-116.053333-81.92-228.693333-194.56-266.24z" fill="" p-id="2408"></path><path d="M266.24 508.586667c6.826667 27.306667 17.066667 51.2 30.72 75.093333 54.613333 102.4 136.533333 167.253333 215.04 167.253333s163.84-64.853333 215.04-167.253333c13.653333-23.893333 23.893333-51.2 30.72-75.093333 34.133333 0 61.44-44.373333 61.44-102.4 0-17.066667-3.413333-34.133333-6.826667-47.786667 3.413333-20.48 6.826667-47.786667 6.826667-68.266667C819.2 133.12 675.84 0 508.586667 0 341.333333 0 204.8 129.706667 204.8 290.133333c0 20.48 3.413333 47.786667 6.826667 68.266667-3.413333 13.653333-6.826667 30.72-6.826667 47.786667 0 58.026667 23.893333 102.4 61.44 102.4zM631.466667 341.333333c-30.72 0-61.44 17.066667-75.093334 44.373334-10.24-3.413333-27.306667-10.24-44.373333-10.24s-34.133333 6.826667-44.373333 10.24c-13.653333-27.306667-40.96-44.373333-75.093334-44.373334-30.72 0-58.026667 17.066667-71.68 40.96l-13.653333-13.653333c0-3.413333 0-3.413333 3.413333-6.826667l17.066667-170.666666c3.413333-37.546667 37.546667-68.266667 75.093333-68.266667 10.24 0 30.72 10.24 47.786667 30.72 13.653333 17.066667 34.133333 17.066667 61.44 17.066667 20.48 0 37.546667-6.826667 54.613333-20.48 17.066667-13.653333 37.546667-30.72 58.026667-30.72 34.133333 0 58.026667 23.893333 61.44 58.026666 6.826667 68.266667 23.893333 153.6 27.306667 177.493334l-13.653334 23.893333c-13.653333-23.893333-40.96-37.546667-68.266666-37.546667z m51.2 85.333334c0 27.306667-23.893333 51.2-51.2 51.2s-51.2-23.893333-51.2-51.2 23.893333-51.2 51.2-51.2 51.2 23.893333 51.2 51.2zM392.533333 375.466667c27.306667 0 51.2 23.893333 51.2 51.2s-23.893333 51.2-51.2 51.2-51.2-23.893333-51.2-51.2 23.893333-51.2 51.2-51.2z m136.533334 273.066666h-34.133334c-10.24 0-17.066667-6.826667-17.066666-17.066666s6.826667-17.066667 17.066666-17.066667h34.133334c10.24 0 17.066667 6.826667 17.066666 17.066667s-6.826667 17.066667-17.066666 17.066666z m232.106666-174.08h-3.413333c-3.413333-3.413333-10.24-3.413333-17.066667 0-3.413333 3.413333-10.24 6.826667-10.24 10.24-6.826667 27.306667-17.066667 54.613333-30.72 81.92-3.413333 0-3.413333 3.413333-6.826666 3.413334s-3.413333 3.413333-6.826667 3.413333-6.826667 3.413333-10.24 3.413333c-3.413333 0-3.413333 0-6.826667 3.413334-3.413333 0-6.826667 0-13.653333 3.413333h-27.306667c-13.653333 0-30.72-13.653333-47.786666-27.306667-20.48-17.066667-44.373333-40.96-75.093334-40.96-30.72 0-54.613333 20.48-71.68 40.96-13.653333 13.653333-27.306667 27.306667-44.373333 27.306667h-27.306667c-3.413333 0-6.826667 0-13.653333-3.413333-3.413333 0-3.413333 0-6.826667-3.413334-3.413333 0-6.826667-3.413333-10.24-3.413333-3.413333 0-3.413333-3.413333-6.826666-3.413333s-3.413333-3.413333-6.826667-3.413334c-13.653333-27.306667-23.893333-54.613333-30.72-81.92 0-6.826667-6.826667-10.24-10.24-10.24-3.413333-3.413333-10.24 0-17.066667 0h-3.413333c-10.24 0-27.306667-27.306667-27.306667-68.266666 0-10.24 0-20.48 3.413334-30.72h23.893333L307.2 416.426667v10.24c0 47.786667 37.546667 85.333333 85.333333 85.333333s85.333333-37.546667 85.333334-85.333333v-6.826667c6.826667-3.413333 20.48-10.24 34.133333-10.24s27.306667 6.826667 34.133333 10.24v6.826667c0 47.786667 37.546667 85.333333 85.333334 85.333333s85.333333-37.546667 85.333333-85.333333v-10.24l27.306667-40.96h37.546666c3.413333 10.24 3.413333 20.48 3.413334 30.72 0 40.96-17.066667 68.266667-23.893334 68.266666z" fill="" p-id="2409"></path></svg>