<?xml version="1.0" standalone="no"?><!DOCTYPE svg PUBLIC "-//W3C//DTD SVG 1.1//EN" "http://www.w3.org/Graphics/SVG/1.1/DTD/svg11.dtd"><svg t="1565580280827" class="icon" viewBox="0 0 1024 1024" version="1.1" xmlns="http://www.w3.org/2000/svg" p-id="15949" xmlns:xlink="http://www.w3.org/1999/xlink" width="200" height="200"><defs><style type="text/css"></style></defs><path d="M160 64C107.264 64 64 107.264 64 160S107.264 256 160 256c14.72 0 28.48-3.776 40.96-9.728l145.792 145.728a155.328 155.328 0 0 0-9.28 158.976l-127.744 103.296A96.256 96.256 0 0 0 160 640c-52.736 0-96 43.264-96 96S107.264 832 160 832 256 788.736 256 736a89.6 89.6 0 0 0-6.016-31.744l127.04-103.04c27.968 23.808 63.744 38.784 102.976 38.784 17.28 0 33.472-3.52 49.024-8.512l68.224 109.248A95.232 95.232 0 0 0 576 800c0 52.736 43.264 96 96 96s96-43.264 96-96a96.32 96.32 0 0 0-116.736-93.76L584.96 599.744c21.248-18.752 37.504-43.008 46.464-70.72l137.792 28.224c6.72 46.528 46.72 82.752 94.72 82.752 52.736 0 96-43.264 96-96S916.736 448 864 448a96.64 96.64 0 0 0-81.728 46.528l-143.744-29.504a158.4 158.4 0 0 0-54.016-105.024l66.496-106.496c6.72 1.472 13.76 2.496 20.992 2.496 52.736 0 96-43.264 96-96S724.736 64 672 64 576 107.264 576 160c0 22.272 8 42.752 20.992 59.008l-68.224 109.44A158.464 158.464 0 0 0 480 320c-32.512 0-62.72 9.984-88 26.752L246.272 201.024C252.16 188.48 256 174.72 256 160 256 107.264 212.736 64 160 64z m0 64c17.984 0 32 14.016 32 32s-14.016 32-32 32a31.616 31.616 0 0 1-32-32c0-17.984 14.016-32 32-32z m512 0c17.984 0 32 14.016 32 32s-14.016 32-32 32a31.616 31.616 0 0 1-32-32c0-17.984 14.016-32 32-32z m-192 256C533.504 384 576 426.496 576 480c0 34.56-17.984 64.256-44.992 81.28a31.872 31.872 0 0 0-8.96 4.992C509.184 572.16 494.912 576 480 576A95.36 95.36 0 0 1 384 480C384 426.496 426.496 384 480 384z m384 128c17.984 0 32 14.016 32 32s-14.016 32-32 32a31.616 31.616 0 0 1-32-32c0-17.984 14.016-32 32-32z m-704 192c17.984 0 32 14.016 32 32s-14.016 32-32 32a31.616 31.616 0 0 1-32-32c0-17.984 14.016-32 32-32z m512 64c17.984 0 32 14.016 32 32s-14.016 32-32 32a31.616 31.616 0 0 1-32-32c0-17.984 14.016-32 32-32z" p-id="15950"></path></svg>