<?xml version="1.0" standalone="no"?><!DOCTYPE svg PUBLIC "-//W3C//DTD SVG 1.1//EN" "http://www.w3.org/Graphics/SVG/1.1/DTD/svg11.dtd"><svg t="1565520205603" class="icon" viewBox="0 0 1024 1024" version="1.1" xmlns="http://www.w3.org/2000/svg" p-id="13778" xmlns:xlink="http://www.w3.org/1999/xlink" width="200" height="200"><defs><style type="text/css"></style></defs><path d="M996.010667 135.168A70.4 70.4 0 0 0 934.4 123.733333c-96.938667 27.690667-228.48 91.136-399.829333-14.208A441.301333 441.301333 0 0 0 172.928 64L128 80.298667V64a64 64 0 0 0-128 0v896a64 64 0 0 0 128 0v-170.666667c337.578667-122.965333 352.384 85.333333 615.253333 85.333334 73.557333 0 84.096-12.544 229.674667-54.144A70.613333 70.613333 0 0 0 1024 752.810667V191.36a70.698667 70.698667 0 0 0-27.989333-56.192z m-162.730667 335.488l-128 128a32 32 0 1 1-45.226667-45.269333l105.344-105.386667-105.344-105.344a32 32 0 1 1 45.226667-45.269333l128 128a32 32 0 0 1 0 45.269333z m-226.901333-140.501333l-85.333334 256a32.042667 32.042667 0 0 1-60.757333-20.266667l85.333333-256a32.042667 32.042667 0 1 1 60.757334 20.266667zM406.613333 553.386667a32 32 0 0 1-45.226666 45.269333l-128-128a32 32 0 0 1 0-45.269333l128-128a32 32 0 0 1 45.226666 45.269333L301.226667 448z" p-id="13779"></path></svg>