<?xml version="1.0" standalone="no"?><!DOCTYPE svg PUBLIC "-//W3C//DTD SVG 1.1//EN" "http://www.w3.org/Graphics/SVG/1.1/DTD/svg11.dtd"><svg t="1565680209626" class="icon" viewBox="0 0 1024 1024" version="1.1" xmlns="http://www.w3.org/2000/svg" p-id="3182" xmlns:xlink="http://www.w3.org/1999/xlink" width="200" height="200"><defs><style type="text/css"></style></defs><path d="M853.333333 170.666667h-136.533333L640 85.333333H384L307.2 170.666667H170.666667c-46.933333 0-85.333333 38.4-85.333334 85.333333v512c0 46.933333 38.4 85.333333 85.333334 85.333333h682.666666c46.933333 0 85.333333-38.4 85.333334-85.333333V256c0-46.933333-38.4-85.333333-85.333334-85.333333z m-341.333333 128c68.266667 0 132.266667 34.133333 170.666667 85.333333h-170.666667c-72.533333 0-128 55.466667-128 128 0 17.066667 4.266667 29.866667 8.533333 42.666667H302.933333c-4.266667-12.8-4.266667-29.866667-4.266666-42.666667 0-119.466667 93.866667-213.333333 213.333333-213.333333z m0 426.666666c-68.266667 0-132.266667-34.133333-170.666667-85.333333h170.666667c72.533333 0 128-55.466667 128-128 0-17.066667-4.266667-29.866667-8.533333-42.666667h89.6c4.266667 12.8 4.266667 29.866667 4.266666 42.666667 0 119.466667-93.866667 213.333333-213.333333 213.333333z" p-id="3183"></path></svg>