<?xml version="1.0" standalone="no"?><!DOCTYPE svg PUBLIC "-//W3C//DTD SVG 1.1//EN" "http://www.w3.org/Graphics/SVG/1.1/DTD/svg11.dtd"><svg t="1565680198024" class="icon" viewBox="0 0 1024 1024" version="1.1" xmlns="http://www.w3.org/2000/svg" p-id="3007" xmlns:xlink="http://www.w3.org/1999/xlink" width="200" height="200"><defs><style type="text/css"></style></defs><path d="M873.832885 443.132516l-86.820368 86.824461-214.490096-214.372416 104.502076-104.503099L873.832885 407.890874C883.567597 417.624563 883.567597 433.399851 873.832885 443.132516zM582.593801 514.406816c-11.634991 11.634991-11.634991 30.54262 0 42.180681l88.838328 88.838328-31.104415 31.103392-88.838328-88.838328c-11.639085-11.634991-30.54569-11.634991-42.181705 0-5.596462 5.596462-8.728802 13.09218-8.728802 21.145599 0 7.943926 3.133364 15.440667 8.728802 21.145599l88.835258 88.838328-31.104415 31.107485-88.836281-88.838328c-11.634991-11.639085-30.54262-11.639085-42.180681 0-11.634991 11.634991-11.634991 30.54262 0 42.180681l88.838328 88.838328-4.696975 4.696975c-14.548344 14.544251-38.265512 14.544251-52.924373 0L150.263305 479.83237c-9.734712-9.734712-9.734712-25.507954 0-35.242665l233.394654-233.507218 361.059266 361.057219-31.103392 31.107485-88.838328-88.838328C613.139491 502.768755 594.228793 502.768755 582.593801 514.406816zM948.350043 398.043598 698.844455 148.536988c-12.08627-12.082176-31.665187-12.082176-43.636846 0L530.340717 273.28927 405.477918 148.536988c-5.819542-5.819542-13.539364-9.063423-21.819958-9.063423-8.278547 0-15.998369 3.242857-21.817911 9.063423L75.746148 434.630888c-15.216563 15.216563-15.216563 39.942711 0 55.04978l378.5138 378.509706c10.854209 10.854209 25.174356 16.335037 39.385009 16.335037 14.32117 0 28.52773-5.481851 39.381939-16.335037l415.213653-415.20956C963.456089 437.874769 963.456089 413.147598 948.350043 398.043598z" p-id="3008"></path></svg>