<?xml version="1.0" standalone="no"?><!DOCTYPE svg PUBLIC "-//W3C//DTD SVG 1.1//EN" "http://www.w3.org/Graphics/SVG/1.1/DTD/svg11.dtd"><svg t="1565580256981" class="icon" viewBox="0 0 1024 1024" version="1.1" xmlns="http://www.w3.org/2000/svg" p-id="15519" xmlns:xlink="http://www.w3.org/1999/xlink" width="200" height="200"><defs><style type="text/css"></style></defs><path d="M225.28 675.84h51.2c11.264 0 20.48-9.216 20.48-20.48V337.92c0-11.264-9.216-20.48-20.48-20.48h-51.2c-11.264 0-20.48 9.216-20.48 20.48v317.44c0 11.264 9.216 20.48 20.48 20.48z m573.44-358.4h-51.2c-11.264 0-20.48 9.216-20.48 20.48v317.44c0 11.264 9.216 20.48 20.48 20.48h51.2c11.264 0 20.48-9.216 20.48-20.48V337.92c0-11.264-9.216-20.48-20.48-20.48zM542.72 675.84c11.264 0 20.48-9.216 20.48-20.48V337.92c0-11.264-9.216-20.48-20.48-20.48h-61.44c-11.264 0-20.48 9.216-20.48 20.48v317.44c0 11.264 9.216 20.48 20.48 20.48h61.44z m122.88 0c11.264 0 20.48-9.216 20.48-20.48V337.92c0-11.264-9.216-20.48-20.48-20.48h-20.48c-11.264 0-20.48 9.216-20.48 20.48v317.44c0 11.264 9.216 20.48 20.48 20.48h20.48z m-266.24 0c11.264 0 20.48-9.216 20.48-20.48V337.92c0-11.264-9.216-20.48-20.48-20.48h-20.48c-11.264 0-20.48 9.216-20.48 20.48v317.44c0 11.264 9.216 20.48 20.48 20.48h20.48z m399.36 61.44H225.28c-11.264 0-20.48 9.216-20.48 20.48v20.48c0 11.264 9.216 20.48 20.48 20.48h573.44c11.264 0 20.48-9.216 20.48-20.48v-20.48c0-11.264-9.216-20.48-20.48-20.48z m0-532.48H225.28c-11.264 0-20.48 9.216-20.48 20.48v20.48c0 11.264 9.216 20.48 20.48 20.48h573.44c11.264 0 20.48-9.216 20.48-20.48v-20.48c0-11.264-9.216-20.48-20.48-20.48z" p-id="15520"></path></svg>