<?xml version="1.0" standalone="no"?><!DOCTYPE svg PUBLIC "-//W3C//DTD SVG 1.1//EN" "http://www.w3.org/Graphics/SVG/1.1/DTD/svg11.dtd"><svg t="1565520103657" class="icon" viewBox="0 0 1024 1024" version="1.1" xmlns="http://www.w3.org/2000/svg" p-id="11643" xmlns:xlink="http://www.w3.org/1999/xlink" width="200" height="200"><defs><style type="text/css"></style></defs><path d="M753.92 139.648a8.533333 8.533333 0 0 0-14.506667 0l-26.666666 42.88a8.533333 8.533333 0 0 1-5.205334 3.797333l-48.981333 12.074667a8.533333 8.533333 0 0 0-4.48 13.781333l32.554667 38.613334a8.533333 8.533333 0 0 1 1.962666 6.101333l-3.626666 50.346667a8.533333 8.533333 0 0 0 11.690666 8.533333l46.805334-18.986667a8.533333 8.533333 0 0 1 6.4 0l46.805333 18.986667a8.533333 8.533333 0 0 0 11.690667-8.533333l-3.626667-50.346667a8.533333 8.533333 0 0 1 1.962667-6.101333l32.554666-38.613334a8.533333 8.533333 0 0 0-4.48-13.781333l-48.981333-12.074667a8.533333 8.533333 0 0 1-5.205333-3.797333l-26.666667-42.88zM597.333333 277.333333a64 64 0 0 0-128 0C469.333333 359.808 392.917333 426.666667 298.666667 426.666667v384a42.666667 42.666667 0 0 0 42.666666 42.666666h314.026667a85.333333 85.333333 0 0 0 83.669333-68.608l51.2-256A85.333333 85.333333 0 0 0 706.602667 426.666667h-152.832A276.138667 276.138667 0 0 0 597.333333 277.333333z m-426.666666 170.666667a21.333333 21.333333 0 0 1 21.333333-21.333333h42.666667a21.333333 21.333333 0 0 1 21.333333 21.333333v384a21.333333 21.333333 0 0 1-21.333333 21.333333h-42.666667a21.333333 21.333333 0 0 1-21.333333-21.333333v-384z" p-id="11644"></path></svg>