<?xml version="1.0" standalone="no"?><!DOCTYPE svg PUBLIC "-//W3C//DTD SVG 1.1//EN" "http://www.w3.org/Graphics/SVG/1.1/DTD/svg11.dtd"><svg t="1565519857194" class="icon" viewBox="0 0 1025 1024" version="1.1" xmlns="http://www.w3.org/2000/svg" p-id="8587" xmlns:xlink="http://www.w3.org/1999/xlink" width="200.1953125" height="200"><defs><style type="text/css"></style></defs><path d="M599.488 1021.888 422.72 1021.888l-26.112-157.504c-19.328-6.4-36.224-12.992-53.888-21.44l-131.328 92.608L85.888 810.56l92.672-131.392c-8.448-17.344-16.832-36.672-21.056-54.016l-157.504-25.984L0 422.272l157.504-25.664c5.888-19.328 12.608-36.672 21.056-53.888L85.888 211.328l125.504-125.056 131.328 92.672C360.384 170.112 378.944 161.664 396.608 157.44L422.72 0l176.768 0 25.344 157.44c20.16 6.272 37.056 12.608 53.952 21.504l131.392-92.672 125.44 125.056-92.608 131.392c8.32 17.216 17.664 36.672 20.992 53.888l158.4 25.664 0 176.896-158.4 25.984c-5.952 19.456-12.672 36.672-20.992 54.016l92.608 131.392-125.44 124.992-131.392-92.608c-16.896 8.448-36.224 17.28-53.952 21.44L599.488 1021.888zM458.944 977.984l103.616 0 26.048-148.16L601.28 825.6c23.552-6.336 47.104-17.28 70.72-30.336l13.376-6.208 123.008 88.32 73.28-73.28-88.512-123.008 6.72-13.056c12.672-21.44 21.888-45.056 30.4-71.104l3.456-12.992 149.952-23.616L983.68 456.832l-149.952-25.664-3.456-13.056c-6.656-23.552-17.664-47.104-30.4-71.104l-6.72-12.608 88.512-122.944-73.28-73.216L685.376 226.56l-13.376-6.784C650.88 206.72 627.328 198.336 601.28 189.888L588.608 185.28 562.56 36.672 458.944 36.672 432.768 185.28 420.224 189.888C396.608 196.16 372.992 206.72 348.608 219.776L336.832 226.56 213.888 138.112 139.84 211.328l89.216 122.944L222.272 346.944c-13.44 21.44-21.888 45.44-30.336 71.104L186.944 431.104 38.784 456.832l0 103.616 148.16 26.112 5.056 12.672c6.72 23.872 16.832 47.488 30.336 71.04l6.72 13.12-89.216 122.88 74.048 73.344 122.944-88.512 11.776 6.336c21.888 13.12 45.504 21.888 71.616 30.4L432.768 832 458.944 977.984z" p-id="8588"></path><path d="M510.336 661.888c-83.392 0-149.952-66.88-149.952-151.168 0-83.776 66.56-150.72 149.952-150.72 84.16 0 151.552 67.008 151.552 150.72C661.888 592.832 594.496 661.888 510.336 661.888zM510.336 381.44c-70.72 0-128.832 58.112-128.832 129.216 0 71.104 58.112 129.728 128.832 129.728 71.552 0 129.6-58.624 129.6-129.728C639.936 439.616 581.888 381.44 510.336 381.44z" p-id="8589"></path></svg>