<?xml version="1.0" standalone="no"?><!DOCTYPE svg PUBLIC "-//W3C//DTD SVG 1.1//EN" "http://www.w3.org/Graphics/SVG/1.1/DTD/svg11.dtd"><svg t="1565520338123" class="icon" viewBox="0 0 1024 1024" version="1.1" xmlns="http://www.w3.org/2000/svg" p-id="18722" xmlns:xlink="http://www.w3.org/1999/xlink" width="200" height="200"><defs><style type="text/css"></style></defs><path d="M896 768h-263.68A128 128 0 0 0 554.666667 690.346667V554.666667h298.666666a42.666667 42.666667 0 0 0 0-85.333334h-42.666666V213.333333a128 128 0 0 0-128-128H341.333333a128 128 0 0 0-128 128v256H170.666667a42.666667 42.666667 0 0 0 0 85.333334h298.666666v135.68A128 128 0 0 0 391.68 768H128a42.666667 42.666667 0 0 0 0 85.333333h263.68a128 128 0 0 0 240.64 0H896a42.666667 42.666667 0 0 0 0-85.333333zM298.666667 469.333333V213.333333a42.666667 42.666667 0 0 1 42.666666-42.666666h341.333334a42.666667 42.666667 0 0 1 42.666666 42.666666v256z m213.333333 384a42.666667 42.666667 0 1 1 42.666667-42.666666 42.666667 42.666667 0 0 1-42.666667 42.666666z" p-id="18723"></path></svg>