<?xml version="1.0" standalone="no"?><!DOCTYPE svg PUBLIC "-//W3C//DTD SVG 1.1//EN" "http://www.w3.org/Graphics/SVG/1.1/DTD/svg11.dtd"><svg t="1565580479470" class="icon" viewBox="0 0 1024 1024" version="1.1" xmlns="http://www.w3.org/2000/svg" p-id="4089" xmlns:xlink="http://www.w3.org/1999/xlink" width="200" height="200"><defs><style type="text/css"></style></defs><path d="M925.615761 714.899106 108.231515 714.899106c-22.261003 0-46.288233-16.603143-46.288233-43.425022l0-555.757596c0-12.174274 5.169743-25.473161 14.183024-36.482913 9.484002-11.583826 21.185508-18.228153 32.105209-18.228153l817.385269 0c20.195971 0 33.766035 21.986757 33.766035 54.710043l0 555.757596C959.381795 710.668759 935.767981 714.899106 925.615761 714.899106zM108.231515 86.589101c-6.17156 0-20.705578 15.234983-20.705578 29.127388l0 555.757596c0 12.608156 13.486152 17.842367 20.705578 17.842367l817.385269 0c3.060709 0 8.18338 0 8.18338-17.842367l0-555.757596c0-18.797112-6.147-29.127388-8.18338-29.127388L108.231515 86.589101z" p-id="4090"></path><path d="M497.8707 689.316451l25.582655 0 0 254.803243-25.582655 0 0-254.803243Z" p-id="4091"></path><path d="M203.158515 931.84002l616.030331 0 0 25.582655-616.030331 0 0-25.582655Z" p-id="4092"></path><path d="M87.524914 177.663352l846.274226 0 0 25.582655-846.274226 0 0-25.582655Z" p-id="4093"></path><path d="M728.053196 165.175947c-14.111392 0-25.590841-11.480472-25.590841-25.591865 0-14.112416 11.479449-25.592888 25.590841-25.592888 14.112416 0 25.594935 11.480472 25.594935 25.592888C753.647107 153.696498 742.165612 165.175947 728.053196 165.175947z" p-id="4094"></path><path d="M804.82879 165.175947c-14.111392 0-25.590841-11.480472-25.590841-25.591865 0-14.112416 11.479449-25.592888 25.590841-25.592888 14.112416 0 25.592888 11.480472 25.592888 25.592888C830.421678 153.696498 818.941206 165.175947 804.82879 165.175947z" p-id="4095"></path><path d="M881.604384 165.175947c-14.111392 0-25.591865-11.480472-25.591865-25.591865 0-14.112416 11.480472-25.592888 25.591865-25.592888s25.591865 11.480472 25.591865 25.592888C907.196249 153.696498 895.715777 165.175947 881.604384 165.175947z" p-id="4096"></path><path d="M401.75862 342.368857l18.095284 18.095284-108.576045 108.576045-18.095284-18.095284 108.576045-108.576045Z" p-id="4097"></path><path d="M311.270195 432.850924l108.574598 108.574598-18.096008 18.096008-108.574598-108.574598 18.096008-18.096008Z" p-id="4098"></path><path d="M631.169562 342.367149l108.576045 108.576045-18.095284 18.095284-108.576045-108.576045 18.095284-18.095284Z" p-id="4099"></path><path d="M721.653894 432.850145l18.095284 18.095284-108.575322 108.575322-18.095284-18.095284 108.575322-108.575322Z" p-id="4100"></path><path d="M542.945102 306.790598l24.665439 6.820232-77.837748 281.501019-24.665439-6.820232 77.837748-281.501019Z" p-id="4101"></path></svg>